Coordinates
version=1
nRows=16
nColumns=40
inDegrees=yes

Units are S.I. units (second, meters, Newtons, ...)
If the header above contains a line with 'inDegrees', this indicates whether rotational values are in degrees (yes) or radians (no).

endheader
time	pelvis_tilt	pelvis_list	pelvis_rotation	pelvis_tx	pelvis_ty	pelvis_tz	hip_flexion_r	hip_adduction_r	hip_rotation_r	knee_angle_r	knee_angle_r_beta	ankle_angle_r	subtalar_angle_r	mtp_angle_r	hip_flexion_l	hip_adduction_l	hip_rotation_l	knee_angle_l	knee_angle_l_beta	ankle_angle_l	subtalar_angle_l	mtp_angle_l	lumbar_extension	lumbar_bending	lumbar_rotation	arm_flex_r	arm_add_r	arm_rot_r	elbow_flex_r	pro_sup_r	wrist_flex_r	wrist_dev_r	arm_flex_l	arm_add_l	arm_rot_l	elbow_flex_l	pro_sup_l	wrist_flex_l	wrist_dev_l
      3.71000000	      0.95131820	     -1.47595605	      1.86732247	     -0.39787783	      0.77826967	     -1.03886889	     59.24704661	     -1.55088899	      2.48581496	      6.27227585	      0.10947187	      1.14810557	      0.00000000	      0.00000000	     44.28545525	     -0.78147120	     -7.87926636	     74.97623327	      1.30858213	     19.73460468	      0.00000000	      0.00000000	    -19.24590870	     -0.04575026	      0.75302911	     89.88265137	    -14.53622982	     15.47974942	     31.23715024	     75.15024612	      0.00000000	      0.00000000	     89.85866518	    -17.39959993	     19.21882618	     37.40104921	     78.39060533	      0.00000000	      0.00000000
      3.71500000	      1.00572359	     -1.39896899	      1.94223362	     -0.39766674	      0.77731117	     -1.03917118	     59.28882748	     -1.67869958	      2.31234267	      6.35160680	      0.11085645	      1.27058136	      0.00000000	      0.00000000	     44.32549197	     -0.64979589	     -7.88640659	     75.18826711	      1.31228282	     19.87459919	      0.00000000	      0.00000000	    -19.31350388	     -0.10044253	      0.64973548	     89.88456410	    -14.57512783	     14.73158317	     31.23534419	     80.85282847	      0.00000000	      0.00000000	     89.85789504	    -17.38095157	     18.41868025	     37.37150374	     84.21924311	      0.00000000	      0.00000000
      3.72000000	      0.95176659	     -1.51143831	      2.00317528	     -0.39772564	      0.77603625	     -1.03899945	     59.38035588	     -1.60249386	      2.34812283	      6.18440811	      0.10793828	      0.79195057	      0.00000000	      0.00000000	     44.58453691	     -0.73767008	     -7.76389861	     75.52371956	      1.31813757	     20.00627313	      0.00000000	      0.00000000	    -19.25890981	      0.00740886	      0.62423483	     89.88566578	    -14.54859155	     14.59762989	     31.32343868	     80.99428620	      0.00000000	      0.00000000	     89.85933252	    -17.33873467	     18.30239272	     37.37168794	     84.08702591	      0.00000000	      0.00000000
      3.72500000	      0.91647322	     -1.50458818	      1.98158033	     -0.39762766	      0.77476320	     -1.03893761	     59.49506207	     -1.58201433	      2.29826008	      6.17344489	      0.10774694	      0.78024598	      0.00000000	      0.00000000	     44.76279840	     -0.74145498	     -7.76343936	     75.80443799	      1.32303703	     20.14145761	      0.00000000	      0.00000000	    -19.21152809	     -0.02218805	      0.66619600	     89.88601529	    -14.59946920	     14.57856085	     31.38792913	     80.99542896	      0.00000000	      0.00000000	     89.86057926	    -17.30941232	     18.34343726	     37.43929754	     84.12706568	      0.00000000	      0.00000000
      3.73000000	      0.97053758	     -1.49363781	      2.02977791	     -0.39752813	      0.77376761	     -1.03901523	     59.49140525	     -1.65304297	      2.10597321	      6.21165178	      0.10841378	      1.07725651	      0.00000000	      0.00000000	     44.82692010	     -0.69882136	     -7.73638571	     76.03691737	      1.32709456	     20.27303768	      0.00000000	      0.00000000	    -19.27391198	     -0.02349784	      0.63835128	     89.88659959	    -14.60716700	     14.38537648	     31.44861813	     81.49260468	      0.00000000	      0.00000000	     89.86105255	    -17.31261968	     18.39638716	     37.51719428	     83.88131459	      0.00000000	      0.00000000
      3.73500000	      0.94074925	     -1.40926926	      2.00607784	     -0.39764050	      0.77249050	     -1.03902501	     59.56483214	     -1.68238363	      2.25132510	      6.09432049	      0.10636596	      0.91123239	      0.00000000	      0.00000000	     44.99478750	     -0.64687354	     -7.81544425	     76.27860142	      1.33131274	     20.38255096	      0.00000000	      0.00000000	    -19.26136912	     -0.13069408	      0.61835878	     89.88714601	    -14.61158455	     15.05808632	     31.64207778	     75.83165016	      0.00000000	      0.00000000	     89.86228467	    -17.28296132	     18.89099235	     37.67408474	     78.74743883	      0.00000000	      0.00000000
      3.74000000	      0.86863716	     -1.49389184	      2.09702324	     -0.39752684	      0.77120972	     -1.03909575	     59.76667141	     -1.71231794	      1.92586127	      6.23828564	      0.10887862	      1.03692453	      0.00000000	      0.00000000	     45.25150241	     -0.62777609	     -7.63930969	     76.58554355	      1.33666989	     20.53326499	      0.00000000	      0.00000000	    -19.17163158	     -0.02457040	      0.55891652	     89.88810591	    -14.63464888	     14.51605431	     31.62935959	     79.74771834	      0.00000000	      0.00000000	     89.86231905	    -17.24096835	     18.10235630	     37.60049645	     84.39192778	      0.00000000	      0.00000000
      3.74500000	      0.83950641	     -1.38063824	      1.99105725	     -0.39755462	      0.77002532	     -1.03902329	     59.92688294	     -1.68994414	      1.99917645	      6.31183954	      0.11016238	      1.04562494	      0.00000000	      0.00000000	     45.38706506	     -0.61055103	     -7.79142597	     76.79485979	      1.34032315	     20.66890281	      0.00000000	      0.00000000	    -19.15145948	     -0.17665423	      0.63780377	     89.88899760	    -14.67151957	     14.47809380	     31.69096503	     80.01644195	      0.00000000	      0.00000000	     89.86444218	    -17.24565626	     18.23090722	     37.67167239	     84.10292534	      0.00000000	      0.00000000
      3.75000000	      0.86098159	     -1.40505085	      2.01022963	     -0.39748903	      0.76892456	     -1.03896665	     59.91781691	     -1.64185682	      2.10869563	      6.14549159	      0.10725906	      0.59244636	      0.00000000	      0.00000000	     45.51309522	     -0.62153078	     -7.75124755	     77.06039810	      1.34495767	     20.77004521	      0.00000000	      0.00000000	    -19.17632663	     -0.15820045	      0.66079590	     89.88964196	    -14.67152223	     14.21512765	     31.79017508	     80.59132493	      0.00000000	      0.00000000	     89.86439221	    -17.18300392	     18.10246075	     37.70931306	     84.16546037	      0.00000000	      0.00000000
      3.75500000	      0.84839908	     -1.36162307	      2.08101956	     -0.39740485	      0.76774957	     -1.03914449	     60.03221588	     -1.76848384	      1.85878823	      6.26870069	      0.10940947	      0.95067140	      0.00000000	      0.00000000	     45.66338097	     -0.50683492	     -7.68536015	     77.33108259	      1.34968201	     20.92404515	      0.00000000	      0.00000000	    -19.17424648	     -0.18491274	      0.55306979	     89.89004105	    -14.64837252	     14.19447523	     31.88090833	     80.28082749	      0.00000000	      0.00000000	     89.86528629	    -17.16058538	     18.00618696	     37.77479929	     84.18348613	      0.00000000	      0.00000000
      3.76000000	      0.81646696	     -1.31121433	      2.06979154	     -0.39737429	      0.76654916	     -1.03915763	     60.15138551	     -1.79016757	      1.86420495	      6.29508285	      0.10986992	      1.00769697	      0.00000000	      0.00000000	     45.83647127	     -0.44345045	     -7.67932245	     77.58369984	      1.35409101	     21.05990273	      0.00000000	      0.00000000	    -19.14690844	     -0.24707519	      0.57296280	     89.89096002	    -14.66928242	     14.18344102	     31.98010468	     80.02078048	      0.00000000	      0.00000000	     89.86600187	    -17.07648308	     17.84183470	     37.79160442	     84.28248036	      0.00000000	      0.00000000
      3.76500000	      0.85887771	     -1.39232598	      2.05480500	     -0.39728531	      0.76555475	     -1.03902954	     60.12028741	     -1.68920867	      1.87700656	      6.17576185	      0.10778738	      0.73054574	      0.00000000	      0.00000000	     45.92532603	     -0.53991566	     -7.61821228	     77.84658650	      1.35867925	     21.17822734	      0.00000000	      0.00000000	    -19.19405016	     -0.16408763	      0.61604691	     89.89170274	    -14.67853166	     14.05104050	     32.12137228	     80.82123157	      0.00000000	      0.00000000	     89.86660541	    -17.15782702	     18.03340235	     37.85234417	     84.01628518	      0.00000000	      0.00000000
      3.77000000	      0.86166554	     -1.31452594	      2.03165825	     -0.39724351	      0.76436641	     -1.03898741	     60.18716809	     -1.71788231	      1.90592817	      6.15560251	      0.10743553	      0.74912336	      0.00000000	      0.00000000	     46.06235047	     -0.49166867	     -7.67501387	     78.10807020	      1.36324300	     21.28885157	      0.00000000	      0.00000000	    -19.20644246	     -0.26428544	      0.65465324	     89.89184275	    -14.70215125	     13.88958815	     32.16333643	     80.43189548	      0.00000000	      0.00000000	     89.86818477	    -17.07164722	     17.88782356	     37.95179443	     84.07021501	      0.00000000	      0.00000000
      3.77500000	      0.81405471	     -1.22853438	      2.05346065	     -0.39726448	      0.76326950	     -1.03911749	     60.31910240	     -1.83059906	      1.72519839	      6.23970125	      0.10890333	      1.04207593	      0.00000000	      0.00000000	     46.22812814	     -0.38776297	     -7.71064795	     78.31722659	      1.36689347	     21.39331194	      0.00000000	      0.00000000	    -19.18107097	     -0.35352163	      0.62154060	     89.89239901	    -14.72434481	     13.83733987	     32.25790710	     80.35338830	      0.00000000	      0.00000000	     89.86851231	    -16.99760507	     17.77212763	     37.98283766	     84.15200988	      0.00000000	      0.00000000
      3.78000000	      0.86609130	     -1.23703122	      2.06012368	     -0.39716290	      0.76221438	     -1.03905576	     60.30839193	     -1.81127845	      1.66325577	      6.20874642	      0.10836307	      1.09615425	      0.00000000	      0.00000000	     46.30253182	     -0.39862620	     -7.68423694	     78.57408727	      1.37137653	     21.52607337	      0.00000000	      0.00000000	    -19.24148295	     -0.34622419	      0.63699172	     89.89312889	    -14.73330306	     13.72454132	     32.34909704	     80.75819560	      0.00000000	      0.00000000	     89.86939284	    -16.96092517	     17.74609710	     38.02471667	     83.91967231	      0.00000000	      0.00000000
      3.78500000	      1.00228351	     -1.31620353	      2.04453768	     -0.39702006	      0.76136267	     -1.03894918	     60.11709907	     -1.72984274	      1.56434638	      5.99649536	      0.10465859	      1.05785900	      0.00000000	      0.00000000	     46.28955111	     -0.49710224	     -7.61690511	     78.86431944	      1.37644204	     21.64892743	      0.00000000	      0.00000000	    -19.38875694	     -0.27015098	      0.72385617	     89.89350379	    -14.74451783	     14.46656593	     32.55115965	     74.80631887	      0.00000000	      0.00000000	     89.87040311	    -16.96711615	     18.49460484	     38.21311654	     78.35849231	      0.00000000	      0.00000000
